<mxfile host="app.diagrams.net" modified="2022-07-06T06:36:49.219Z" agent="5.0 (Windows NT 10.0; Win64; x64) AppleWebKit/537.36 (KHTML, like Gecko) Chrome/103.0.0.0 Safari/537.36" etag="YvZXttjIgNsZzSyviVGi" version="18.0.2" type="github">
  <diagram id="h1HHiENIVI1bzVXgJgcx" name="Page-1">
    <mxGraphModel dx="1422" dy="738" grid="1" gridSize="10" guides="1" tooltips="1" connect="1" arrows="1" fold="1" page="1" pageScale="1" pageWidth="827" pageHeight="1169" math="0" shadow="0">
      <root>
        <mxCell id="0" />
        <mxCell id="1" parent="0" />
        <mxCell id="zbwvcHUFhtrXlRUdUlR2-1" value="&lt;p&gt;&lt;font size=&quot;1&quot; face=&quot;Times New Roman&quot; style=&quot;&quot;&gt;&lt;b style=&quot;font-size: 16px;&quot;&gt;基于单阈值的ROI提取研究&lt;/b&gt;&lt;/font&gt;&lt;/p&gt;" style="rounded=0;whiteSpace=wrap;html=1;" vertex="1" parent="1">
          <mxGeometry x="80" y="280" width="170" height="80" as="geometry" />
        </mxCell>
        <mxCell id="zbwvcHUFhtrXlRUdUlR2-2" value="&lt;font face=&quot;Times New Roman&quot; style=&quot;font-size: 16px;&quot;&gt;&lt;b&gt;基于多阈值的ROI提取研究&lt;/b&gt;&lt;/font&gt;" style="rounded=0;whiteSpace=wrap;html=1;" vertex="1" parent="1">
          <mxGeometry x="310" y="280" width="170" height="80" as="geometry" />
        </mxCell>
        <mxCell id="zbwvcHUFhtrXlRUdUlR2-3" value="&lt;font face=&quot;Times New Roman&quot; style=&quot;font-size: 16px;&quot;&gt;&lt;b&gt;轻量级医学图像加密算法的设计&lt;/b&gt;&lt;/font&gt;" style="rounded=0;whiteSpace=wrap;html=1;" vertex="1" parent="1">
          <mxGeometry x="540" y="280" width="170" height="80" as="geometry" />
        </mxCell>
        <mxCell id="zbwvcHUFhtrXlRUdUlR2-4" value="" style="shape=flexArrow;endArrow=classic;html=1;rounded=0;fontFamily=Times New Roman;fontSize=16;exitX=1;exitY=0.5;exitDx=0;exitDy=0;width=13;endSize=4.43;entryX=0;entryY=0.5;entryDx=0;entryDy=0;" edge="1" parent="1" source="zbwvcHUFhtrXlRUdUlR2-1" target="zbwvcHUFhtrXlRUdUlR2-2">
          <mxGeometry width="50" height="50" relative="1" as="geometry">
            <mxPoint x="270" y="350" as="sourcePoint" />
            <mxPoint x="320" y="300" as="targetPoint" />
          </mxGeometry>
        </mxCell>
        <mxCell id="zbwvcHUFhtrXlRUdUlR2-5" value="" style="shape=flexArrow;endArrow=classic;html=1;rounded=0;fontFamily=Times New Roman;fontSize=16;exitX=1;exitY=0.5;exitDx=0;exitDy=0;entryX=0;entryY=0.5;entryDx=0;entryDy=0;width=16;endSize=5;" edge="1" parent="1" source="zbwvcHUFhtrXlRUdUlR2-2" target="zbwvcHUFhtrXlRUdUlR2-3">
          <mxGeometry width="50" height="50" relative="1" as="geometry">
            <mxPoint x="490" y="350" as="sourcePoint" />
            <mxPoint x="540" y="300" as="targetPoint" />
            <Array as="points">
              <mxPoint x="510" y="320" />
            </Array>
          </mxGeometry>
        </mxCell>
      </root>
    </mxGraphModel>
  </diagram>
</mxfile>
